HIERARCHY
ROOT Hips
{
	OFFSET 0.000000 0.000000 0.000000
	CHANNELS 6 Xposition Yposition Zposition Zrotation Yrotation Xrotation 
	JOINT LowerBack
	{
		OFFSET 0.000000 0.000000 0.000000
		CHANNELS 3 Zrotation Yrotation Xrotation
		JOINT Spine
		{
			OFFSET 0.028270 2.035590 -0.193380
			CHANNELS 3 Zrotation Yrotation Xrotation
			JOINT Spine1
			{
				OFFSET 0.056720 2.048850 -0.042750
				CHANNELS 3 Zrotation Yrotation Xrotation
				JOINT Neck
				{
					OFFSET 0.000000 0.000000 0.000000
					CHANNELS 3 Zrotation Yrotation Xrotation
					JOINT Neck1
					{
						OFFSET -0.054170 1.746240 0.172020
						CHANNELS 3 Zrotation Yrotation Xrotation
						JOINT Head
						{
							OFFSET 0.104070 1.761360 -0.123970
							CHANNELS 3 Zrotation Yrotation Xrotation
							End Site
							{
								OFFSET 0.000000 0.000000 0.000000
							}
						}
					}
				}
				JOINT LeftShoulder
				{
					OFFSET 0.000000 0.000000 0.000000
					CHANNELS 3 Zrotation Yrotation Xrotation
					JOINT LeftArm
					{
						OFFSET 3.362410 1.200890 -0.311210
						CHANNELS 3 Zrotation Yrotation Xrotation
						JOINT LeftForeArm
						{
							OFFSET 4.983000 -0.000000 -0.000000
							CHANNELS 3 Zrotation Yrotation Xrotation
							JOINT LeftHand
							{
								OFFSET 3.483560 -0.000000 -0.000000
								CHANNELS 3 Zrotation Yrotation Xrotation
								JOINT LeftFingerBase
								{
									OFFSET 0.000000 0.000000 0.000000
									CHANNELS 3 Zrotation Yrotation Xrotation
									JOINT LeftHandIndex1
									{
										OFFSET 0.715260 -0.000000 -0.000000
										CHANNELS 3 Zrotation Yrotation Xrotation
										End Site
										{
											OFFSET 0.000000 0.000000 0.000000
										}
									}
								}
								JOINT LThumb
								{
									OFFSET 0.000000 0.000000 0.000000
									CHANNELS 3 Zrotation Yrotation Xrotation
									End Site
									{
										OFFSET 0.000000 0.000000 0.000000
									}
								}
							}
						}
					}
				}
				JOINT RightShoulder
				{
					OFFSET 0.000000 0.000000 0.000000
					CHANNELS 3 Zrotation Yrotation Xrotation
					JOINT RightArm
					{
						OFFSET -3.136600 1.374050 -0.404650
						CHANNELS 3 Zrotation Yrotation Xrotation
						JOINT RightForeArm
						{
							OFFSET -5.241900 -0.000000 -0.000000
							CHANNELS 3 Zrotation Yrotation Xrotation
							JOINT RightHand
							{
								OFFSET -3.444170 -0.000000 -0.000000
								CHANNELS 3 Zrotation Yrotation Xrotation
								JOINT RightFingerBase
								{
									OFFSET 0.000000 0.000000 0.000000
									CHANNELS 3 Zrotation Yrotation Xrotation
									JOINT RightHandIndex1
									{
										OFFSET -0.622530 -0.000000 -0.000000
										CHANNELS 3 Zrotation Yrotation Xrotation
										End Site
										{
											OFFSET 0.000000 0.000000 0.000000
										}
									}
								}
								JOINT RThumb
								{
									OFFSET 0.000000 0.000000 0.000000
									CHANNELS 3 Zrotation Yrotation Xrotation
									End Site
									{
										OFFSET 0.000000 0.000000 0.000000
									}
								}
							}
						}
					}
				}
			}
		}
	}
}
}
MOTION
Frames: 18
Frame Time: 0.008333
4.403285 17.362878 1.180830 13.854729 -85.500288 8.934382 2.036463 -2.766833 3.189275 0.202923 -2.745850 -2.500490 -4.490161 -2.741414 -0.828077 10.676652 -10.545465 -4.249114 -3.512979 -0.286830 0.781268 0.000000 0.000000 0.000000 1.414351 -1.843996 -0.684295 -78.427927 9.209082 22.584958 179.993440 -77.734043 179.994999 3.319328 7.299262 0.201795 0.059305 0.235272 0.000000 0.000000 0.000000 0.000000 0.000000 0.000000 0.000000 15.035076 -9.249733 3.012037 55.189671 23.186806 50.355434 179.542870 86.498374 179.987048 -3.647437 -0.146163 -0.001769 0.249465 -0.266783 -0.000000 0.000000 0.000000 0.000000 0.000000 0.000000 0.000000 
4.405095 17.364013 1.172216 12.457881 -83.958374 10.162086 1.847500 -2.645465 3.189810 0.187770 -2.618723 -2.481424 -4.325185 -2.616870 -0.739782 10.468847 -10.352749 -4.185851 -3.485092 -0.285518 0.796522 0.000000 0.000000 0.000000 1.434495 -1.786924 -0.713424 -78.090388 8.809646 23.984884 179.996076 -77.672465 179.997687 2.963270 7.389355 0.181432 0.068610 0.233874 0.000000 0.000000 0.000000 0.000000 0.000000 0.000000 0.000000 14.892418 -9.054711 3.208715 53.754121 24.478270 50.750286 179.543859 86.432638 179.985899 -3.634311 -0.816585 0.021602 0.252871 -0.246902 -0.000000 0.000000 0.000000 0.000000 0.000000 0.000000 0.000000 
4.405878 17.365172 1.162545 11.522589 -82.437436 10.907338 1.663369 -2.517350 3.165942 0.177702 -2.485544 -2.463494 -4.138438 -2.486937 -0.639895 10.212301 -10.117920 -4.096390 -3.446320 -0.283766 0.819354 0.000000 0.000000 0.000000 1.441133 -1.735504 -0.744873 -77.689001 8.315975 25.407042 179.998737 -77.592846 179.999986 2.668033 7.512818 0.165381 0.075915 0.231738 -0.000000 0.000000 0.000000 0.000000 0.000000 0.000000 0.000000 14.655281 -8.817713 3.418652 52.198580 25.919654 51.131888 179.546946 86.382184 179.983866 -3.548857 -1.499566 0.044548 0.253722 -0.225981 -0.000000 0.000000 0.000000 0.000000 0.000000 0.000000 0.000000 
4.405569 17.366509 1.151912 10.860864 -80.965408 11.356037 1.471891 -2.381203 3.117867 0.170069 -2.344151 -2.448079 -3.931884 -2.349502 -0.535187 9.907247 -9.824105 -3.972437 -3.398598 -0.281814 0.852089 0.000000 0.000000 0.000000 1.432661 -1.713187 -0.779347 -77.238974 7.768800 26.813021 179.999119 -77.471894 -179.998197 2.443606 7.642704 0.153441 0.081406 0.229423 -0.000000 0.000000 0.000000 0.000000 0.000000 0.000000 0.000000 14.328630 -8.523342 3.644698 50.479881 27.508216 51.478005 179.551791 86.316316 179.983267 -3.383298 -2.073491 0.061379 0.251572 -0.207032 -0.000000 0.000000 0.000000 0.000000 0.000000 0.000000 0.000000 
4.404529 17.367956 1.140455 10.361151 -79.565507 11.616375 1.273550 -2.234957 3.050163 0.165654 -2.192093 -2.432855 -3.701995 -2.202094 -0.420686 9.535664 -9.456163 -3.818527 -3.335385 -0.279145 0.893260 0.000000 0.000000 0.000000 1.412148 -1.660473 -0.812451 -76.751443 7.112308 28.236027 179.999648 -77.341100 -179.996993 2.289685 7.758149 0.145520 0.084368 0.227664 -0.000000 0.000000 0.000000 0.000000 0.000000 0.000000 0.000000 13.859614 -8.147355 3.873293 48.612400 29.207059 51.771446 179.558656 86.236554 179.983169 -3.162450 -2.414783 0.068196 0.246165 -0.193100 -0.000000 0.000000 0.000000 0.000000 0.000000 0.000000 0.000000 
4.402912 17.369526 1.128206 9.974857 -78.258509 11.735313 1.067042 -2.077756 2.967422 0.164327 -2.028014 -2.416754 -3.448328 -2.043345 -0.296541 9.087995 -9.013311 -3.638818 -3.254589 -0.275587 0.941651 0.000000 0.000000 0.000000 1.376258 -1.562562 -0.842704 -76.236391 6.342702 29.669758 -179.999003 -77.199395 -179.996385 2.195344 7.842748 0.140821 0.084968 0.226858 -0.000000 0.000000 0.000000 0.000000 0.000000 0.000000 0.000000 13.229074 -7.687010 4.098681 46.576735 30.999417 52.009625 179.568612 86.135496 179.984347 -2.927781 -2.444692 0.064405 0.238017 -0.186234 -0.000000 0.000000 0.000000 0.000000 0.000000 0.000000 0.000000 
4.400501 17.371404 1.115203 9.679852 -77.060264 11.738625 0.846850 -1.909450 2.870534 0.163618 -1.851174 -2.402320 -3.177578 -1.872495 -0.173812 8.573738 -8.484275 -3.429817 -3.161948 -0.271625 0.998346 0.000000 0.000000 0.000000 1.326113 -1.454746 -0.870280 -75.706034 5.516666 31.070170 -179.998648 -77.019035 -179.996184 2.141764 7.887448 0.138131 0.084305 0.227052 -0.000000 0.000000 0.000000 0.000000 0.000000 0.000000 0.000000 12.473161 -7.135467 4.322574 44.302526 32.847476 52.169691 179.579009 85.973907 179.986538 -2.681327 -2.152673 0.051806 0.226896 -0.187076 -0.000000 0.000000 0.000000 0.000000 0.000000 0.000000 0.000000 
4.397427 17.373587 1.101436 9.457710 -75.980760 11.647163 0.619362 -1.728765 2.764827 0.164593 -1.660346 -2.388007 -2.890080 -1.688259 -0.050005 7.980908 -7.877340 -3.203719 -3.053775 -0.266897 1.059929 0.000000 0.000000 0.000000 1.257915 -1.300830 -0.891861 -75.163923 4.602622 32.453770 -179.996530 -76.817837 -179.996300 2.108300 7.893417 0.136053 0.082437 0.228214 -0.000000 0.000000 0.000000 0.000000 0.000000 0.000000 0.000000 11.564521 -6.496233 4.533393 41.799749 34.707821 52.255656 179.592830 85.769303 179.989817 -2.435164 -1.550148 0.033095 0.212559 -0.195433 -0.000000 0.000000 0.000000 0.000000 0.000000 0.000000 0.000000 
4.393827 17.376080 1.086811 9.300375 -75.022769 11.471232 0.390280 -1.534926 2.654446 0.167873 -1.454920 -2.372522 -2.588234 -1.489937 0.077747 7.302546 -7.216346 -2.975952 -2.927940 -0.261124 1.122209 0.000000 0.000000 0.000000 1.166812 -1.078616 -0.905947 -74.612134 3.580034 33.827712 -179.990326 -76.604686 -179.996610 2.075525 7.868827 0.133682 0.079543 0.230014 -0.000000 0.000000 0.000000 0.000000 0.000000 0.000000 0.000000 10.489386 -5.790760 4.723072 39.085709 36.551724 52.278616 179.612066 85.551558 179.993201 -2.163592 -0.681801 0.011364 0.194142 -0.210070 -0.000000 0.000000 0.000000 0.000000 0.000000 0.000000 0.000000 
4.389487 17.378928 1.071254 9.206973 -74.181433 11.219299 0.165057 -1.327275 2.541179 0.173240 -1.234575 -2.356764 -2.278143 -1.277074 0.206263 6.539449 -6.517357 -2.756533 -2.784660 -0.254256 1.182610 0.000000 0.000000 0.000000 1.048641 -0.789761 -0.911076 -74.050611 2.453833 35.184059 -179.978669 -76.381856 -179.996977 2.027660 7.825072 0.129912 0.075956 0.231945 -0.000000 0.000000 0.000000 0.000000 0.000000 0.000000 0.000000 9.248759 -5.032783 4.886360 36.185764 38.329675 52.241067 179.638822 85.354304 179.996965 -1.791058 0.378599 -0.008902 0.169839 -0.228832 -0.000000 0.000000 0.000000 0.000000 0.000000 0.000000 0.000000 
4.384248 17.382216 1.054687 9.177438 -73.444595 10.898094 -0.050659 -1.105550 2.426094 0.180690 -0.999542 -2.341091 -1.965882 -1.049674 0.335366 5.693260 -5.806091 -2.558153 -2.623235 -0.246138 1.237848 0.000000 0.000000 0.000000 0.899322 -0.432273 -0.906667 -73.478856 1.218583 36.521601 -179.959972 -76.153494 -179.997314 1.954683 7.775387 0.124539 0.071758 0.233444 -0.000000 0.000000 0.000000 0.000000 0.000000 0.000000 0.000000 7.838719 -4.244588 5.019575 33.153796 40.003051 52.148177 179.674317 85.236892 -179.998949 -1.203899 1.553239 -0.019819 0.137237 -0.249012 -0.000000 0.000000 0.000000 0.000000 0.000000 0.000000 0.000000 
4.377956 17.385895 1.037019 9.211001 -72.793320 10.515595 -0.250107 -0.870564 2.309719 0.190643 -0.751319 -2.324159 -1.657740 -0.808944 0.471574 4.766440 -5.128090 -2.399496 -2.442403 -0.236476 1.282948 0.000000 0.000000 0.000000 0.711693 0.004906 -0.893580 -72.892163 -0.145107 37.844983 -179.932411 -75.926337 -179.997612 1.853847 7.732476 0.117562 0.066706 0.233915 -0.000000 0.000000 0.000000 0.000000 0.000000 0.000000 0.000000 6.254236 -3.469585 5.122119 30.063847 41.570146 52.005793 179.718698 85.292173 -179.994521 -0.266297 2.770350 -0.008502 0.093864 -0.267566 0.000000 0.000000 0.000000 0.000000 0.000000 0.000000 0.000000 
4.370096 17.390089 1.018283 9.306568 -72.204283 10.083721 -0.431573 -0.623723 2.189131 0.201786 -0.491852 -2.308353 -1.363356 -0.556453 0.609281 3.774600 -4.493890 -2.282769 -2.243743 -0.225353 1.317575 0.000000 0.000000 0.000000 0.488024 0.500105 -0.871988 -72.291028 -1.618276 39.140772 -179.896190 -75.699806 -179.997853 1.726606 7.704878 0.109277 0.060852 0.232895 -0.000000 0.000000 0.000000 0.000000 0.000000 0.000000 0.000000 4.508066 -2.714564 5.195041 26.987524 42.977459 51.791516 179.767900 85.602475 -179.990670 1.170557 3.942803 0.042440 0.037631 -0.281170 0.000000 0.000000 0.000000 0.000000 0.000000 0.000000 0.000000 
4.360552 17.394803 0.998490 9.455089 -71.651650 9.616108 -0.593945 -0.367736 2.062189 0.213084 -0.224362 -2.294623 -1.091321 -0.294996 0.746483 2.735255 -3.922238 -2.211487 -2.028654 -0.212792 1.340943 0.000000 0.000000 0.000000 0.231346 1.041586 -0.842740 -71.677043 -3.192829 40.401428 -179.851539 -75.472895 -179.998079 1.578644 7.697191 0.099987 0.054077 0.230085 -0.000000 0.000000 0.000000 0.000000 0.000000 0.000000 0.000000 2.614352 -1.995736 5.238755 24.001529 44.197081 51.480710 179.820001 86.272242 -179.986342 3.200084 4.994042 0.149318 -0.031269 -0.286840 0.000000 0.000000 0.000000 0.000000 0.000000 0.000000 0.000000 
4.348851 17.400047 0.977835 9.648825 -71.112134 9.130289 -0.736965 -0.106727 1.927283 0.223546 0.046589 -2.282951 -0.849338 -0.028769 0.883269 1.668437 -3.435280 -2.188060 -1.799265 -0.198840 1.352405 0.000000 0.000000 0.000000 -0.056966 1.626042 -0.805775 -71.050598 -4.863866 41.621787 -179.798547 -75.245335 -179.998357 1.416967 7.710073 0.090190 0.046186 0.225347 -0.000000 0.000000 0.000000 0.000000 0.000000 0.000000 0.000000 0.595559 -1.335776 5.250799 21.167793 45.230788 51.044825 179.872142 87.420065 -179.983186 5.804437 5.861770 0.317467 -0.109048 -0.282538 0.000000 0.000000 0.000000 0.000000 0.000000 0.000000 0.000000 
4.334956 17.405862 0.956601 9.868145 -70.565300 8.647146 -0.863997 0.155080 1.782826 0.231421 0.316668 -2.275442 -0.644127 0.238245 1.010329 0.601716 -3.024745 -2.201167 -1.559982 -0.183869 1.355089 0.000000 0.000000 0.000000 -0.367073 2.234476 -0.759328 -70.419891 -6.605577 42.788610 -179.738223 -75.012110 -179.998730 1.247754 7.738916 0.080093 0.037251 0.218868 -0.000000 0.000000 0.000000 0.000000 0.000000 0.000000 0.000000 -1.509853 -0.725890 5.224333 18.533669 46.045454 50.447912 179.924401 89.144505 -179.981771 8.828345 6.497538 0.533347 -0.188269 -0.267828 -0.000000 0.000000 0.000000 0.000000 0.000000 0.000000 0.000000 
4.318645 17.412221 0.935156 10.097110 -69.992846 8.189707 -0.979327 0.411933 1.625669 0.235284 0.580238 -2.273499 -0.479076 0.500566 1.121206 -0.437278 -2.680594 -2.239166 -1.316337 -0.168330 1.352036 0.000000 0.000000 0.000000 -0.690420 2.856065 -0.700400 -69.793628 -8.395711 43.891580 -179.670923 -74.769439 -179.999230 1.074882 7.776597 0.069801 0.027350 0.211031 -0.000000 0.000000 0.000000 0.000000 0.000000 0.000000 0.000000 -3.651981 -0.158852 5.151425 16.128234 46.629713 49.661758 -0.021103 88.461202 0.017335 11.978788 6.893644 0.764923 -0.259227 -0.244542 -0.000000 0.000000 0.000000 0.000000 0.000000 0.000000 0.000000 
4.300166 17.419070 0.913982 10.313042 -69.386219 7.779662 -1.086467 0.659047 1.455636 0.233967 0.832750 -2.277360 -0.355521 0.753685 1.212406 -1.422062 -2.389985 -2.291410 -1.075521 -0.152783 1.345893 0.000000 0.000000 0.000000 -1.019327 3.485031 -0.626319 -69.183031 -10.215883 44.920866 -179.596670 -74.512976 -179.999856 0.898457 7.813496 0.059215 0.016687 0.202414 -0.000000 0.000000 0.000000 0.000000 0.000000 0.000000 0.000000 -5.768790 0.373240 5.028046 13.954856 46.992129 48.659310 0.038381 85.317840 0.014313 14.895912 7.089564 0.974941 -0.313276 -0.216602 0.000000 0.000000 0.000000 0.000000 0.000000 0.000000 0.000000 
